<svg width="570" height="312" viewBox="0 0 570 312" fill="none" xmlns="http://www.w3.org/2000/svg">
<rect width="570" height="312" fill="#D6EDFF"/>
<path d="M84.1431 106.984C98.6927 104.279 109.693 91.7654 109.693 76.7368C109.693 59.7328 95.6104 45.9482 78.2382 45.9482C60.8659 45.9482 46.7829 59.7328 46.7829 76.7368C46.7829 77.5773 46.8173 78.4098 46.8848 79.2332H40.3234C32.4128 79.2332 26 85.5666 26 93.3793C26 101.192 32.4128 107.525 40.3234 107.525H80.2041C81.5702 107.525 82.8916 107.337 84.1431 106.984Z" fill="white"/>
<path d="M140.334 107.305C158.936 103.835 173 87.7807 173 68.5C173 46.6848 154.995 29 132.785 29C110.575 29 92.5705 46.6848 92.5705 68.5C92.5705 69.5782 92.6145 70.6463 92.7008 71.7027H84.3121C74.1986 71.7027 66 79.8281 66 89.8513C66 99.8746 74.1986 108 84.3121 108H135.299C137.045 108 138.735 107.758 140.334 107.305Z" fill="white"/>
<path d="M457.397 67.6482C472.01 65.8911 483.059 57.7624 483.059 48C483.059 36.9543 468.914 28 451.466 28C434.018 28 419.874 36.9543 419.874 48C419.874 48.5459 419.908 49.0867 419.976 49.6216H413.386C405.441 49.6216 399 53.7358 399 58.8108C399 63.8859 405.441 68 413.386 68H453.441C454.813 68 456.14 67.8773 457.397 67.6482Z" fill="white"/>
<path d="M458.091 67.5778C447.236 65.4693 439.028 55.7149 439.028 44C439.028 30.7452 449.535 20 462.497 20C475.458 20 485.965 30.7452 485.965 44C485.965 44.6551 485.94 45.3041 485.889 45.9459H490.785C496.687 45.9459 501.472 50.8829 501.472 56.973C501.472 63.063 496.687 68 490.785 68H461.03C460.011 68 459.025 67.8528 458.091 67.5778Z" fill="white"/>
<path opacity="0.7" d="M0 239H570V312H0V239Z" fill="white"/>
<path d="M0 239H570V246H0V239Z" fill="white"/>
<path opacity="0.8" d="M112 312L194.551 233H372.879L454 312H112Z" fill="#D5DEE4"/>
<path d="M142 312L211.517 233H361.687L430 312H142Z" fill="#EAEFF1"/>
<path fill-rule="evenodd" clip-rule="evenodd" d="M386.962 98.1356H407.87H431.101V246.081H386.962V98.1356Z" fill="#BBC8D1"/>
<path fill-rule="evenodd" clip-rule="evenodd" d="M136.841 98.1356H157.749H180.98V246.081H136.841V98.1356Z" fill="#BBC8D1"/>
<path fill-rule="evenodd" clip-rule="evenodd" d="M63.2759 98.1356H98.1225H136.841V246.081H63.2759V98.1356Z" fill="#A2B3BE"/>
<path fill-rule="evenodd" clip-rule="evenodd" d="M430.182 98.1356H446.298H464.205V246.081H430.182V98.1356Z" fill="#A2B3BE"/>
<path fill-rule="evenodd" clip-rule="evenodd" d="M464.206 105.487H495.132H529.495V246.082H464.206V105.487Z" fill="#BBC8D1"/>
<path d="M180.061 88.0266H386.962V246.081H180.061V88.0266Z" fill="#0062AD"/>
<g clip-path="url(#clip0_144_3095)">
<path d="M180.865 193.595H405.865V252.595H180.865V193.595Z" fill="#00172C"/>
</g>
<path d="M180.061 203.812H235.235V246.082H180.061V203.812Z" fill="#6ECCE3"/>
<path d="M194.774 218.516H220.522V246.083H194.774V218.516Z" fill="#00172C"/>
<path d="M180.98 216.677H233.396V219.434H180.98V216.677Z" fill="#F1F4F6"/>
<path d="M181.9 231.381H193.854V233.218H181.9V231.381Z" fill="#F1F4F6"/>
<path d="M181.9 238.732H193.854V240.57H181.9V238.732Z" fill="#F1F4F6"/>
<path d="M181.9 244.244H193.854V246.082H181.9V244.244Z" fill="#F1F4F6"/>
<path d="M221.441 231.381H233.396V233.218H221.441V231.381Z" fill="#F1F4F6"/>
<path d="M221.441 238.732H233.396V240.57H221.441V238.732Z" fill="#F1F4F6"/>
<path d="M221.441 244.244H233.396V246.082H221.441V244.244Z" fill="#F1F4F6"/>
<path d="M180.061 203.813H235.235V206.361H180.061V203.813Z" fill="#F1F4F6"/>
<path d="M180.061 203.813H181.942V246.286H180.061V203.813Z" fill="#F1F4F6"/>
<path d="M233.354 203.813H235.235V246.286H233.354V203.813Z" fill="#F1F4F6"/>
<path d="M192.935 203.813H194.815V246.286H192.935V203.813Z" fill="#F1F4F6"/>
<path d="M219.894 203.813H221.775V246.286H219.894V203.813Z" fill="#F1F4F6"/>
<path d="M331.789 203.812H386.962V246.082H331.789V203.812Z" fill="#6ECCE3"/>
<path d="M346.502 218.516H372.25V246.083H346.502V218.516Z" fill="#00172C"/>
<path d="M332.708 216.677H385.124V219.434H332.708V216.677Z" fill="#F1F4F6"/>
<path d="M333.628 231.381H345.582V233.218H333.628V231.381Z" fill="#F1F4F6"/>
<path d="M333.628 238.732H345.582V240.57H333.628V238.732Z" fill="#F1F4F6"/>
<path d="M333.628 244.244H345.582V246.082H333.628V244.244Z" fill="#F1F4F6"/>
<path d="M373.169 231.381H385.124V233.218H373.169V231.381Z" fill="#F1F4F6"/>
<path d="M373.169 238.732H385.124V240.57H373.169V238.732Z" fill="#F1F4F6"/>
<path d="M373.169 244.244H385.124V246.082H373.169V244.244Z" fill="#F1F4F6"/>
<path d="M331.789 203.813H386.963V206.361H331.789V203.813Z" fill="#F1F4F6"/>
<path d="M331.789 203.813H333.67V246.286H331.789V203.813Z" fill="#F1F4F6"/>
<path d="M385.083 203.813H386.963V246.286H385.083V203.813Z" fill="#F1F4F6"/>
<path d="M344.663 203.813H346.544V246.286H344.663V203.813Z" fill="#F1F4F6"/>
<path d="M371.622 203.813H373.503V246.286H371.622V203.813Z" fill="#F1F4F6"/>
<g opacity="0.9">
<path d="M256.385 203.812H311.559V219.434H256.385V203.812Z" fill="#6ECCE3"/>
<path d="M271.098 218.516H296.845V246.083H271.098V218.516Z" fill="#00172C"/>
<path d="M257.304 216.677H309.719V219.434H257.304V216.677Z" fill="#D5DEE4"/>
<path d="M256.385 203.813H311.558V206.361H256.385V203.813Z" fill="#D5DEE4"/>
<path d="M256.385 203.813H258.266V246.286H256.385V203.813Z" fill="#D5DEE4"/>
<path d="M309.678 203.813H311.559V246.286H309.678V203.813Z" fill="#D5DEE4"/>
<path d="M269.258 203.813H271.097V219.435H269.258V203.813Z" fill="#D5DEE4"/>
<path d="M295.926 203.813H297.765V219.435H295.926V203.813Z" fill="#D5DEE4"/>
</g>
<path fill-rule="evenodd" clip-rule="evenodd" d="M179.865 77H170.865L179.865 88.027V77Z" fill="#00172C"/>
<path d="M179.865 77H386.319V88.027H179.865V77Z" fill="#00172C"/>
<path fill-rule="evenodd" clip-rule="evenodd" d="M394.319 77L386.319 77V88.027L394.319 77Z" fill="#00172C"/>
<path fill-rule="evenodd" clip-rule="evenodd" d="M387.687 87.109H378.687L387.687 98.136V87.109Z" fill="#00172C"/>
<path d="M387.687 87.109H430.458V98.136H387.687V87.109Z" fill="#00172C"/>
<path fill-rule="evenodd" clip-rule="evenodd" d="M438.458 87.109L430.458 87.109V98.136L438.458 87.109Z" fill="#00172C"/>
<path d="M430.182 94.4585H463.562V105.486H430.182V94.4585Z" fill="#00172C"/>
<path fill-rule="evenodd" clip-rule="evenodd" d="M471.562 94.4585L463.562 94.4585V105.486L471.562 94.4585Z" fill="#00172C"/>
<path fill-rule="evenodd" clip-rule="evenodd" d="M137.565 87.109H128.565L137.565 98.136V87.109Z" fill="#00172C"/>
<path d="M137.565 87.109H180.337V98.136H137.565V87.109Z" fill="#00172C"/>
<path fill-rule="evenodd" clip-rule="evenodd" d="M188.336 87.109L180.336 87.109V98.136L188.336 87.109Z" fill="#00172C"/>
<path fill-rule="evenodd" clip-rule="evenodd" d="M64 94.4585H55L64 105.486V94.4585Z" fill="#00172C"/>
<path d="M64 94.4585H136.841V105.486H64V94.4585Z" fill="#00172C"/>
<path d="M261.902 231.379C261.902 230.364 262.725 229.541 263.741 229.541C264.757 229.541 265.58 230.364 265.58 231.379V247.001H261.902V231.379Z" fill="#FFC220"/>
<path d="M226.958 231.379C226.958 230.364 227.782 229.541 228.798 229.541C229.813 229.541 230.637 230.364 230.637 231.379V247.001H226.958V231.379Z" fill="#FFC220"/>
<path d="M184.658 231.379C184.658 230.364 185.482 229.541 186.497 229.541C187.513 229.541 188.336 230.364 188.336 231.379V247.001H184.658V231.379Z" fill="#FFC220"/>
<path d="M302.363 231.379C302.363 230.364 303.186 229.541 304.202 229.541C305.218 229.541 306.041 230.364 306.041 231.379V247.001H302.363V231.379Z" fill="#FFC220"/>
<path d="M339.145 231.379C339.145 230.364 339.968 229.541 340.984 229.541C342 229.541 342.823 230.364 342.823 231.379V247.001H339.145V231.379Z" fill="#FFC220"/>
<path d="M378.687 231.379C378.687 230.364 379.51 229.541 380.526 229.541C381.541 229.541 382.365 230.364 382.365 231.379V247.001H378.687V231.379Z" fill="#FFC220"/>
<path d="M136.841 160.622H180.061V246.082H136.841V160.622Z" fill="#728997"/>
<path opacity="0.75" d="M63.2759 200.134H136.841V246.08H63.2759V200.134Z" fill="#899EAB"/>
<path opacity="0.75" d="M430.182 200.134H529.495V246.08H430.182V200.134Z" fill="#899EAB"/>
<path d="M386.962 160.622H430.182V246.082H386.962V160.622Z" fill="#728997"/>
<path d="M120.289 211.163H137.184V245.866H120.289V211.163Z" fill="#00172C"/>
<path d="M151.554 110.082H166.267V124.785H151.554V110.082Z" fill="#00172C"/>
<path d="M400.756 110.082H415.469V124.785H400.756V110.082Z" fill="#00172C"/>
<path d="M430.182 211.163H449.188V245.866H430.182V211.163Z" fill="#00172C"/>
<path d="M339.558 131.215L349.828 141.399C350.297 141.864 350.297 142.617 349.828 143.08L339.56 153.266L337.787 151.509C337.311 151.037 337.311 150.272 337.787 149.8L345.408 142.24L337.852 134.748C337.34 134.24 337.34 133.415 337.852 132.907L339.558 131.215Z" fill="white"/>
<path d="M336.254 132.899L334.556 131.217L324.339 141.353C323.842 141.845 323.842 142.644 324.339 143.136L334.559 153.269L336.255 151.587C336.773 151.073 336.773 150.239 336.255 149.726L328.71 142.245L336.255 134.759C336.77 134.244 336.77 133.412 336.254 132.899Z" fill="white"/>
<path d="M289.51 145.534C289.51 148.435 290.888 149.729 293.377 149.634C293.595 149.634 293.836 149.609 294.055 149.563V147.213H293.425C292.557 147.213 291.928 146.685 291.928 145.534V132.66L289.51 133.14V145.534Z" fill="white"/>
<path d="M261.441 134.003H264.051L262.528 138.726H260.522L261.441 134.003Z" fill="white"/>
<path d="M249.93 149.442H252.346V142.992C252.346 141.027 253.579 139.492 255.344 139.492C256.964 139.492 257.761 140.643 257.761 142.153V149.442H260.179V142.178C260.179 139.133 258.318 137.239 255.78 137.239C254.161 137.239 252.806 137.934 251.792 139.517C251.066 138.077 249.736 137.239 248.117 137.239C246.569 137.239 245.241 138.079 244.515 139.589V137.455H242.097V149.441H244.515V142.992C244.515 141.027 245.747 139.492 247.512 139.492C249.133 139.492 249.93 140.643 249.93 142.153V149.442Z" fill="white"/>
<path d="M217.763 148.364L218.85 146.182C219.648 146.756 221.074 147.404 222.162 147.404C223.515 147.404 224.046 146.756 224.046 146.061C224.071 145.246 223.394 144.935 221.967 144.479C219.575 143.759 218.221 142.921 218.221 140.714C218.221 138.7 219.769 137.262 222.572 137.262C224.022 137.262 225.352 137.718 226.416 138.461L225.328 140.451C224.699 140.067 223.636 139.492 222.452 139.492C221.413 139.492 220.785 139.899 220.785 140.691C220.785 141.338 221.245 141.77 222.767 142.226C225.355 142.993 226.635 143.952 226.635 145.966C226.635 148.244 224.773 149.634 222.186 149.634C220.421 149.634 218.729 149.059 217.763 148.364Z" fill="white"/>
<path fill-rule="evenodd" clip-rule="evenodd" d="M237.415 146.997C236.593 148.747 235.022 149.658 233.161 149.658C230.042 149.658 227.553 147.285 227.553 143.449C227.553 139.637 230.042 137.264 233.161 137.264C235.022 137.264 236.593 138.174 237.415 139.925V137.455H239.833V149.442H237.415V146.997ZM233.765 139.517C231.613 139.517 230.139 141.219 230.139 143.472C230.139 145.702 231.613 147.404 233.765 147.404C235.893 147.404 237.367 145.653 237.367 143.425C237.367 141.218 235.893 139.517 233.765 139.517Z" fill="white"/>
<path d="M264.271 146.182L263.184 148.364C264.15 149.059 265.842 149.634 267.607 149.634C270.194 149.634 272.056 148.244 272.056 145.966C272.056 143.952 270.776 142.993 268.188 142.226C266.666 141.77 266.206 141.338 266.206 140.691C266.206 139.899 266.834 139.492 267.873 139.492C269.057 139.492 270.12 140.067 270.749 140.451L271.837 138.461C270.773 137.718 269.443 137.262 267.993 137.262C265.19 137.262 263.642 138.7 263.642 140.714C263.642 142.921 264.996 143.759 267.388 144.479C268.815 144.935 269.492 145.246 269.467 146.061C269.467 146.756 268.936 147.404 267.583 147.404C266.495 147.404 265.069 146.756 264.271 146.182Z" fill="white"/>
<path d="M277.541 143.448C277.541 139.635 280.2 137.262 283.899 137.262C285.639 137.262 287.187 137.814 288.371 138.988L286.897 140.786C285.978 139.876 284.891 139.515 283.923 139.515C281.699 139.515 280.128 140.834 280.128 143.423C280.128 146.012 281.699 147.379 283.923 147.379C284.889 147.379 285.977 146.995 286.92 146.037L288.394 147.811C287.21 148.985 285.688 149.632 283.898 149.632C280.224 149.634 277.541 147.26 277.541 143.448Z" fill="white"/>
<path d="M295.071 144.503V137.455H297.489V144.695C297.489 146.277 298.505 147.356 300.195 147.356C301.887 147.356 302.902 146.277 302.902 144.695V137.455H305.32V144.503C305.32 147.787 303.266 149.634 300.195 149.634C297.125 149.634 295.071 147.787 295.071 144.503Z" fill="white"/>
<path fill-rule="evenodd" clip-rule="evenodd" d="M310.024 146.997C310.846 148.747 312.417 149.658 314.278 149.658C317.397 149.658 319.887 147.283 319.886 143.472C319.886 139.637 317.397 137.264 314.278 137.264C312.417 137.264 310.846 138.174 310.024 139.925V132.66L307.606 133.14V149.466H310.024V146.997ZM317.3 143.448C317.3 145.701 315.826 147.404 313.674 147.404C311.547 147.404 310.072 145.702 310.072 143.496C310.072 141.267 311.547 139.517 313.674 139.517C315.826 139.517 317.3 141.218 317.3 143.448Z" fill="white"/>
<defs>
<clipPath id="clip0_144_3095">
<rect width="225.293" height="62.4864" fill="white" transform="translate(170.865 183.595)"/>
</clipPath>
</defs>
</svg>
